<mxfile host="app.diagrams.net" modified="2023-06-01T12:56:08.011Z" agent="Mozilla/5.0 (Macintosh; Intel Mac OS X 10_15_7) AppleWebKit/537.36 (KHTML, like Gecko) Chrome/114.0.0.0 Safari/537.36" etag="6v0A3QnuqNprGxlEyxz5" version="21.3.6" type="github">
  <diagram name="Page-1" id="3G1EZCsPa_Am8cwKu3Vh">
    <mxGraphModel dx="1589" dy="1200" grid="1" gridSize="10" guides="1" tooltips="1" connect="1" arrows="1" fold="1" page="1" pageScale="1" pageWidth="827" pageHeight="1169" math="0" shadow="0">
      <root>
        <mxCell id="0" />
        <mxCell id="1" parent="0" />
        <mxCell id="Wj_xxbjdGeCXi83SOpZb-9" style="edgeStyle=orthogonalEdgeStyle;rounded=0;orthogonalLoop=1;jettySize=auto;html=1;exitX=1;exitY=0.25;exitDx=0;exitDy=0;entryX=0;entryY=0.25;entryDx=0;entryDy=0;" edge="1" parent="1" source="Wj_xxbjdGeCXi83SOpZb-1" target="Wj_xxbjdGeCXi83SOpZb-8">
          <mxGeometry relative="1" as="geometry" />
        </mxCell>
        <mxCell id="Wj_xxbjdGeCXi83SOpZb-1" value="&lt;b style=&quot;border-color: var(--border-color);&quot;&gt;Call Stack&lt;/b&gt;&lt;br style=&quot;border-color: var(--border-color);&quot;&gt;Micro Tasks&lt;br style=&quot;border-color: var(--border-color);&quot;&gt;(for Promises)" style="rounded=1;whiteSpace=wrap;html=1;fillColor=#f5f5f5;strokeColor=#666666;fontColor=#333333;flipH=0;" vertex="1" parent="1">
          <mxGeometry x="200" y="200" width="80" height="80" as="geometry" />
        </mxCell>
        <mxCell id="Wj_xxbjdGeCXi83SOpZb-6" value="&lt;b&gt;Job Queue&lt;/b&gt;&lt;br&gt;Micro Tasks&lt;br&gt;(for Promises)" style="rounded=1;whiteSpace=wrap;html=1;fillColor=#f5f5f5;strokeColor=#666666;fontColor=#333333;flipH=0;" vertex="1" parent="1">
          <mxGeometry x="360" y="200" width="80" height="80" as="geometry" />
        </mxCell>
        <mxCell id="Wj_xxbjdGeCXi83SOpZb-7" value="&lt;b style=&quot;border-color: var(--border-color);&quot;&gt;Callback Queue&lt;/b&gt;&lt;br style=&quot;border-color: var(--border-color);&quot;&gt;Tasks" style="rounded=1;whiteSpace=wrap;html=1;fillColor=#f5f5f5;strokeColor=#666666;fontColor=#333333;flipH=0;" vertex="1" parent="1">
          <mxGeometry x="520" y="200" width="80" height="80" as="geometry" />
        </mxCell>
        <mxCell id="Wj_xxbjdGeCXi83SOpZb-8" value="WEB API" style="rounded=1;whiteSpace=wrap;html=1;fillColor=#f5f5f5;strokeColor=#666666;fontColor=#333333;" vertex="1" parent="1">
          <mxGeometry x="360" y="80" width="80" height="80" as="geometry" />
        </mxCell>
      </root>
    </mxGraphModel>
  </diagram>
</mxfile>
